<svg width="75" height="75" viewBox="0 0 75 75" xmlns="http://www.w3.org/2000/svg">
  <defs>
    <!-- Shading 6 Gradient - Brand Blue to Vibrant Purple -->
    <linearGradient id="sh6" x1="-185.016907" y1="626.266174" x2="-185.016907" y2="624.766724" gradientUnits="userSpaceOnUse">
      <stop offset="0%" stop-color="#3867d6" />
      <stop offset="100%" stop-color="#8250df" />
    </linearGradient>
    <!-- Shading 7 Gradient - High-contrast White to Silver -->
    <linearGradient id="sh7" x1="-184.160904" y1="627.5" x2="-184.160904" y2="626.000488" gradientUnits="userSpaceOnUse">
      <stop offset="0%" stop-color="#ffffff" />
      <stop offset="100%" stop-color="#d1d8e0" />
    </linearGradient>
    <clipPath id="clip1">
      <path d="M 47.699 3.750 C 54.449 3.750, 57.824 3.750, 61.500 4.875 C 65.477 6.301, 68.625 9.449, 70.051 13.426 C 71.250 17.102, 71.250 20.551, 71.250 27.301 L 71.250 47.699 C 71.250 54.449, 71.250 57.824, 70.125 61.500 C 68.699 65.477, 65.551 68.625, 61.574 70.051 C 57.824 71.250, 54.449 71.250, 47.699 71.250 L 27.301 71.250 C 20.551 71.250, 17.176 71.250, 13.500 70.125 C 9.449 68.625, 6.375 65.551, 4.875 61.500 C 3.750 57.898, 3.750 54.523, 3.750 47.699 L 3.750 27.301 C 3.750 20.551, 3.750 17.176, 4.875 13.500 C 6.375 9.523, 9.449 6.375, 13.500 4.949 C 17.102 3.750, 20.477 3.750, 27.301 3.750 Z M 47.699 3.750" />
    </clipPath>
    <clipPath id="clip2">
      <path d="M 63.824 38.852 C 64.801 38.699, 64.801 38.477, 63.824 38.250 L 61.051 37.727 L 61.051 36.375 L 63.750 35.699 C 64.727 35.477, 64.648 35.176, 63.676 35.102 L 60.898 34.875 C 60.824 34.426, 60.824 34.051, 60.750 33.602 L 63.375 32.625 C 64.273 32.250, 64.273 32.023, 63.301 32.023 L 60.523 32.102 C 60.449 31.648, 60.301 31.273, 60.227 30.824 L 62.699 29.551 C 63.602 29.102, 63.449 28.875, 62.551 29.023 L 59.773 29.477 C 59.625 29.102, 59.477 28.648, 59.324 28.273 L 61.648 26.699 C 62.477 26.102, 62.324 25.875, 61.426 26.176 L 58.727 26.926 C 58.500 26.551, 58.352 26.176, 58.125 25.801 L 60.227 23.926 C 60.977 23.250, 60.824 23.023, 59.926 23.398 L 57.375 24.449 C 57.148 24.074, 56.852 23.699, 56.625 23.398 L 58.500 21.301 C 59.176 20.551, 59.023 20.398, 58.125 20.852 L 55.500 22.199 C 55.199 21.898, 54.977 21.523, 54.676 21.227 L 56.324 18.898 C 56.926 18.074, 56.699 17.926, 55.875 18.449 L 53.625 20.102 C 53.324 19.801, 53.023 19.500, 52.648 19.273 L 54.000 16.801 C 54.449 15.898, 54.227 15.750, 53.551 16.426 L 51.523 18.301 C 51.148 18.074, 50.852 17.773, 50.477 17.551 L 51.523 14.926 C 51.898 14.023, 51.676 13.875, 51.000 14.625 L 49.199 16.727 C 48.824 16.500, 48.449 16.352, 48.074 16.125 L 48.750 13.426 C 48.977 12.449, 48.750 12.375, 48.227 13.199 L 46.727 15.523 C 46.352 15.375, 45.898 15.227, 45.523 15.074 L 45.898 12.301 C 46.051 11.324, 45.824 11.250, 45.375 12.148 L 44.102 14.625 C 43.727 14.477, 43.273 14.398, 42.824 14.324 L 42.898 11.551 C 42.898 10.574, 42.676 10.500, 42.301 11.477 L 41.324 14.102 C 40.875 14.023, 40.500 13.949, 40.051 13.949 L 39.602 11.250 C 39.523 10.273, 39.227 10.273, 39.000 11.176 L 38.324 13.875 L 37.051 13.875 L 36.449 11.102 C 36.227 10.125, 36.000 10.125, 35.852 11.102 L 35.551 13.875 C 35.102 13.875, 34.727 13.949, 34.273 14.023 L 33.301 11.398 C 33.000 10.500, 32.699 10.500, 32.699 11.477 L 32.773 14.250 C 32.324 14.324, 31.949 14.398, 31.500 14.551 L 30.301 12.000 C 29.852 11.102, 29.625 11.176, 29.699 12.148 L 30.000 14.926 C 29.625 15.074, 29.176 15.227, 28.801 15.375 L 27.301 13.051 C 26.773 12.227, 26.551 12.301, 26.773 13.273 L 27.449 15.977 C 27.074 16.125, 26.699 16.352, 26.324 16.574 L 24.523 14.398 C 23.926 13.648, 23.699 13.801, 24.000 14.699 L 24.977 17.324 C 24.602 17.551, 24.227 17.773, 23.926 18.000 L 21.898 16.051 C 21.148 15.375, 21.000 15.523, 21.449 16.426 L 22.727 18.898 C 22.426 19.199, 22.051 19.426, 21.750 19.727 L 19.500 18.074 C 18.676 17.477, 18.523 17.699, 19.051 18.449 L 20.625 20.773 C 20.324 21.074, 20.023 21.375, 19.727 21.750 L 17.324 20.324 C 16.500 19.801, 16.273 20.023, 16.949 20.773 L 18.750 22.875 C 18.523 23.176, 18.227 23.551, 18.000 23.926 L 15.449 22.801 C 14.551 22.426, 14.398 22.648, 15.148 23.324 L 17.250 25.199 C 17.023 25.574, 16.801 25.949, 16.648 26.324 L 13.949 25.574 C 12.977 25.273, 12.898 25.574, 13.727 26.102 L 15.977 27.676 C 15.824 28.051, 15.602 28.426, 15.449 28.875 L 12.676 28.426 C 11.699 28.273, 11.625 28.500, 12.449 28.949 L 14.926 30.301 C 14.773 30.676, 14.699 31.125, 14.551 31.500 L 11.773 31.426 C 10.801 31.426, 10.727 31.648, 11.625 32.023 L 14.250 33.000 C 14.176 33.449, 14.102 33.824, 14.023 34.273 L 11.250 34.648 C 10.273 34.727, 10.273 34.949, 11.176 35.250 L 13.875 36.000 C 13.875 36.449, 13.801 36.824, 13.801 37.273 L 11.023 37.801 C 10.051 37.949, 10.051 38.250, 11.023 38.398 L 13.801 38.773 C 13.801 39.227, 13.875 39.602, 13.875 40.051 L 11.176 40.875 C 10.199 41.176, 10.273 41.398, 11.250 41.477 L 14.023 41.551 C 14.102 42.000, 14.176 42.375, 14.250 42.824 L 11.699 44.023 C 10.801 44.477, 10.875 44.699, 11.852 44.625 L 14.625 44.324 C 14.773 44.773, 14.852 45.148, 15.000 45.602 L 12.602 47.023 C 11.773 47.551, 11.852 47.773, 12.824 47.551 L 15.602 46.949 C 15.750 47.324, 15.977 47.699, 16.125 48.148 L 13.949 49.875 C 13.199 50.477, 13.273 50.699, 14.250 50.398 L 16.875 49.500 L 17.551 50.625 L 15.750 52.426 C 15.074 53.102, 15.227 53.324, 16.051 52.875 L 18.602 51.676 C 18.824 52.051, 19.125 52.352, 19.426 52.648 L 17.699 54.824 C 17.102 55.574, 17.250 55.801, 18.074 55.273 L 20.398 53.773 L 21.301 54.676 L 19.875 57.074 C 19.352 57.898, 19.574 58.051, 20.324 57.449 L 22.500 55.648 C 22.801 55.949, 23.176 56.176, 23.551 56.477 L 22.352 59.023 C 21.898 59.926, 22.125 60.074, 22.801 59.324 L 24.750 57.301 L 25.875 57.977 L 24.977 60.602 C 24.676 61.500, 24.898 61.648, 25.500 60.898 L 27.227 58.648 C 27.602 58.801, 27.977 59.023, 28.426 59.176 L 27.898 61.949 C 27.676 62.926, 27.977 63.000, 28.426 62.176 L 29.852 59.773 C 30.227 59.926, 30.676 60.074, 31.051 60.148 L 30.750 63.000 C 30.676 63.977, 30.898 64.051, 31.352 63.148 L 32.477 60.602 C 32.926 60.676, 33.301 60.750, 33.750 60.824 L 33.898 63.602 C 33.977 64.574, 34.199 64.574, 34.500 63.676 L 35.250 60.977 C 35.699 61.051, 36.148 61.051, 36.523 61.051 L 36.977 63.824 C 37.125 64.801, 37.352 64.801, 37.574 63.824 L 38.102 61.051 C 38.551 61.051, 38.926 61.051, 39.375 60.977 L 40.125 63.676 C 40.426 64.648, 40.648 64.574, 40.727 63.602 L 40.875 60.824 C 41.324 60.750, 41.699 60.676, 42.148 60.602 L 43.199 63.148 C 43.574 64.051, 43.801 63.977, 43.801 63.000 L 43.500 60.375 C 43.949 60.301, 44.324 60.148, 44.699 60.000 L 46.125 62.398 C 46.648 63.227, 46.875 63.148, 46.648 62.176 L 46.125 59.398 C 46.500 59.250, 46.949 59.102, 47.324 58.875 L 48.977 61.125 C 49.574 61.949, 49.801 61.801, 49.500 60.824 L 48.750 58.273 L 49.875 57.602 L 51.750 59.625 C 52.426 60.375, 52.648 60.227, 52.273 59.324 L 51.148 56.773 C 51.523 56.551, 51.824 56.250, 52.199 56.023 L 54.375 57.824 C 55.125 58.426, 55.352 58.273, 54.824 57.449 L 53.398 55.051 L 54.301 54.148 L 56.625 55.648 C 57.449 56.176, 57.602 56.023, 57.000 55.199 L 55.273 53.023 C 55.574 52.727, 55.801 52.352, 56.102 52.051 L 58.648 53.324 C 59.551 53.773, 59.699 53.551, 59.023 52.875 L 57.000 50.852 C 57.227 50.477, 57.449 50.176, 57.676 49.801 L 60.301 50.699 C 61.199 51.000, 61.352 50.773, 60.602 50.176 L 58.426 48.449 C 58.648 48.074, 58.801 47.699, 59.023 47.250 L 61.727 47.852 C 62.699 48.074, 62.773 47.852, 61.949 47.324 L 59.551 45.824 C 59.699 45.449, 59.852 45.000, 60.000 44.625 L 62.773 44.926 C 63.750 45.000, 63.824 44.773, 62.926 44.324 L 60.375 43.125 C 60.449 42.676, 60.602 42.301, 60.676 41.852 L 63.449 41.773 C 64.426 41.773, 64.500 41.477, 63.523 41.176 L 60.898 40.500 C 60.977 40.051, 60.977 39.676, 61.051 39.227 Z M 27.676 52.051 C 26.926 53.398, 24.977 53.551, 23.773 52.875 C 22.949 52.426, 21.000 50.551, 19.199 47.625 C 17.551 44.625, 16.648 41.250, 16.648 37.574 C 16.648 31.426, 19.273 25.949, 23.551 22.125 C 24.898 21.375, 26.773 21.523, 27.523 22.801 L 34.949 35.551 C 35.551 36.602, 35.551 38.625, 34.875 39.676 Z M 53.551 50.699 C 51.148 53.551, 48.074 55.801, 44.477 57.074 C 39.824 58.426, 33.750 58.500, 31.426 57.227 C 29.852 56.477, 29.250 54.824, 30.000 53.477 L 37.352 40.727 C 37.949 39.676, 39.523 38.773, 40.727 38.773 L 55.051 38.773 C 56.625 38.773, 57.676 40.125, 57.676 41.477 C 57.676 42.676, 56.699 46.801, 53.551 50.699 Z M 36.375 37.500 C 36.375 36.898, 36.898 36.375, 37.500 36.375 C 38.102 36.375, 38.625 36.898, 38.625 37.500 C 38.625 38.102, 38.102 38.625, 37.500 38.625 C 36.898 38.625, 36.375 38.102, 36.375 37.500 Z M 55.352 36.148 L 40.352 36.148 C 39.074 36.074, 37.574 35.023, 36.977 33.898 L 29.852 21.523 C 29.102 20.176, 29.926 18.676, 31.125 18.000 C 31.949 17.551, 34.574 16.727, 38.023 16.727 C 47.852 16.949, 55.949 24.074, 57.824 33.375 C 58.051 34.949, 56.699 36.148, 55.352 36.148 Z M 55.352 36.148" />
    </clipPath>
  </defs>
  <g transform="matrix(1 0 0 -1 0 75)">
  <rect x="-1000" y="-1000" width="2000" height="2000" fill="url(#sh6)" transform="matrix(45 0 0 -45 8363.25 28185.75)" clip-path="url(#clip1)" />
  <path d="M 66.750 37.500 C 66.750 53.656, 53.656 66.750, 37.500 66.750 C 21.344 66.750, 8.250 53.656, 8.250 37.500 C 8.250 21.344, 21.344 8.250, 37.500 8.250 C 53.656 8.250, 66.750 21.344, 66.750 37.500 Z M 66.750 37.500" fill="#18181b" transform="matrix(45 0 0 -45 8363.25 28185.75)" />
  <path d="M 39.469 21.930 L 40.211 22.035 L 41.023 20.027 C 41.266 19.383, 41.406 19.477, 41.395 20.082 L 41.324 22.191 C 41.551 22.223, 41.836 22.340, 42.059 22.371 L 43.082 20.469 C 43.391 19.906, 43.539 19.930, 43.445 20.598 L 43.078 22.664 C 43.289 22.770, 43.578 22.887, 43.801 22.918 L 45.027 21.199 C 45.406 20.645, 45.543 20.738, 45.375 21.398 L 44.785 23.438 C 45.000 23.543, 45.285 23.656, 45.488 23.836 L 46.852 22.211 C 47.297 21.742, 47.434 21.840, 47.203 22.410 L 46.391 24.418 C 46.594 24.598, 46.805 24.703, 47.008 24.883 L 48.574 23.438 C 49.094 22.980, 49.230 23.074, 48.914 23.711 L 47.898 25.539 C 48.102 25.719, 48.305 25.898, 48.430 26.070 L 50.188 24.875 C 50.695 24.492, 50.836 24.590, 50.453 25.141 L 49.133 27.000 C 49.336 27.180, 49.461 27.352, 49.652 27.605 L 51.527 26.656 C 52.102 26.355, 52.238 26.453, 51.785 26.996 L 50.355 28.535 C 50.484 28.703, 50.676 28.961, 50.793 29.203 L 52.797 28.426 C 53.430 28.211, 53.484 28.371, 52.977 28.754 L 51.348 30.113 L 51.699 30.844 L 53.742 30.301 C 54.367 30.160, 54.422 30.320, 53.926 30.629 L 52.168 31.820 C 52.285 32.062, 52.328 32.297, 52.445 32.539 L 54.531 32.227 C 55.148 32.164, 55.277 32.332, 54.629 32.621 L 52.754 33.566 C 52.797 33.801, 52.914 34.047, 52.945 34.352 L 54.992 34.336 C 55.672 34.355, 55.652 34.504, 55.090 34.730 L 53.172 35.445 C 53.215 35.680, 53.246 35.984, 53.289 36.219 L 55.379 36.438 C 56.047 36.531, 56.027 36.680, 55.402 36.820 L 53.367 37.289 C 53.410 37.523, 53.367 37.820, 53.336 38.043 L 55.312 38.547 C 55.969 38.715, 55.949 38.863, 55.258 38.918 L 53.180 39.156 L 53.066 39.973 L 55.020 40.629 C 55.668 40.871, 55.645 41.020, 54.965 41.000 L 52.918 41.016 C 52.879 41.312, 52.773 41.523, 52.730 41.820 L 54.566 42.762 C 55.129 43.066, 55.109 43.215, 54.441 43.121 L 52.438 42.840 C 52.332 43.051, 52.289 43.348, 52.184 43.562 L 53.914 44.715 C 54.465 45.094, 54.371 45.230, 53.789 45.074 L 51.812 44.570 C 51.707 44.781, 51.594 45.070, 51.488 45.281 L 53.039 46.637 C 53.508 47.078, 53.484 47.227, 52.836 46.984 L 50.969 46.270 C 50.789 46.469, 50.672 46.758, 50.492 46.957 L 51.875 48.441 C 52.344 48.887, 52.238 49.098, 51.602 48.781 L 49.730 47.535 L 49.191 48.141 L 50.402 49.750 C 50.789 50.258, 50.691 50.395, 50.141 50.016 L 48.484 48.871 C 48.301 49.074, 48.121 49.277, 47.879 49.395 L 48.922 51.133 C 49.223 51.703, 49.125 51.840, 48.582 51.387 L 47.031 50.031 C 46.777 50.223, 46.609 50.352, 46.363 50.469 L 47.164 52.324 C 47.453 52.969, 47.293 53.023, 46.836 52.504 L 45.453 51.023 L 44.723 51.375 L 45.277 53.344 C 45.492 53.980, 45.332 54.035, 44.949 53.527 L 43.824 51.852 C 43.578 51.969, 43.336 52.086, 43.016 52.195 L 43.340 54.207 C 43.480 54.836, 43.320 54.887, 42.949 54.305 L 41.988 52.504 C 41.754 52.547, 41.438 52.652, 41.203 52.695 L 41.305 54.680 C 41.359 55.371, 41.137 55.340, 40.914 54.777 L 40.164 53.082 C 39.934 53.125, 39.625 53.156, 39.391 53.199 L 39.258 55.227 C 39.238 55.906, 39.016 55.875, 38.875 55.246 L 38.320 53.277 C 38.086 53.320, 37.789 53.277, 37.484 53.309 L 37.051 55.293 C 36.957 55.965, 36.734 55.930, 36.672 55.316 L 36.508 53.250 C 36.211 53.207, 35.988 53.176, 35.680 53.207 L 35.027 55.160 C 34.785 55.809, 34.637 55.789, 34.656 55.109 L 34.641 53.062 C 34.344 53.020, 34.121 52.988, 33.832 52.871 L 32.969 54.719 C 32.734 55.293, 32.512 55.262, 32.605 54.594 L 32.812 52.578 C 32.527 52.461, 32.305 52.430, 32.094 52.324 L 30.941 54.059 C 30.633 54.621, 30.410 54.590, 30.578 53.930 L 31.008 51.945 C 30.797 51.840, 30.512 51.723, 30.297 51.617 L 29.008 53.254 C 28.629 53.809, 28.414 53.703, 28.656 53.055 L 29.312 51.102 C 29.098 50.996, 28.895 50.816, 28.609 50.699 L 27.117 52.156 C 26.672 52.625, 26.535 52.527, 26.766 51.957 L 27.707 50.117 C 27.504 49.938, 27.305 49.758, 27.090 49.652 L 25.473 50.941 C 24.961 51.324, 24.824 51.227, 25.203 50.676 L 26.355 48.945 C 26.156 48.766, 25.953 48.586, 25.836 48.340 L 24.121 49.234 C 23.539 49.609, 23.410 49.438, 23.855 48.973 L 25.145 47.336 C 24.941 47.156, 24.824 46.910, 24.699 46.742 L 22.832 47.617 C 22.262 47.914, 22.133 47.746, 22.578 47.277 L 24.070 45.820 C 23.953 45.578, 23.824 45.406, 23.707 45.164 L 21.727 45.793 C 21.090 46.008, 21.035 45.848, 21.543 45.465 L 23.238 44.188 C 23.121 43.945, 23.004 43.703, 22.961 43.469 L 20.938 43.867 C 20.312 44.004, 20.258 43.844, 20.840 43.473 L 22.652 42.441 C 22.535 42.195, 22.492 41.965, 22.449 41.730 L 20.230 41.871 C 19.543 41.926, 19.488 41.770, 20.137 41.480 L 22.062 40.691 C 22.020 40.457, 21.988 40.152, 21.945 39.918 L 19.836 39.848 C 19.156 39.828, 19.176 39.680, 19.812 39.465 L 21.793 38.836 C 21.750 38.602, 21.793 38.305, 21.750 38.070 L 19.680 37.707 C 19.012 37.613, 19.043 37.391, 19.660 37.324 L 21.758 36.938 C 21.789 36.715, 21.758 36.406, 21.789 36.184 L 19.750 35.594 C 19.094 35.426, 19.125 35.203, 19.805 35.223 L 21.934 35.145 L 22.039 34.402 L 20.105 33.602 C 19.535 33.367, 19.566 33.145, 20.234 33.238 L 22.332 33.383 C 22.363 33.160, 22.480 32.875, 22.586 32.660 L 20.762 31.648 C 20.195 31.340, 20.219 31.191, 20.887 31.285 L 22.957 31.652 C 23.062 31.441, 23.176 31.152, 23.281 30.941 L 21.562 29.715 C 21.008 29.336, 21.105 29.195, 21.762 29.363 L 23.789 30.027 C 23.895 29.816, 24.074 29.613, 24.180 29.402 L 22.641 27.973 C 22.172 27.527, 22.266 27.391, 22.840 27.621 L 24.762 28.500 C 24.941 28.297, 25.047 28.082, 25.227 27.883 L 23.867 26.250 C 23.410 25.734, 23.578 25.605, 24.129 25.984 L 25.945 27.074 C 26.125 26.871, 26.297 26.746, 26.477 26.543 L 25.293 24.711 C 24.922 24.129, 25.082 24.074, 25.559 24.445 L 27.270 25.746 C 27.449 25.543, 27.691 25.426, 27.875 25.223 L 26.957 23.125 C 26.656 22.555, 26.828 22.426, 27.297 22.871 L 28.824 24.375 C 28.996 24.246, 29.238 24.129, 29.484 24.012 L 28.777 22.020 C 28.566 21.383, 28.723 21.328, 29.105 21.840 L 30.457 23.543 C 30.699 23.426, 30.945 23.309, 31.113 23.180 L 30.652 21.070 C 30.516 20.445, 30.672 20.391, 31.055 20.898 L 32.164 22.723 C 32.406 22.605, 32.641 22.562, 32.875 22.520 L 32.645 20.367 C 32.590 19.676, 32.750 19.625, 33.039 20.270 L 33.902 22.207 L 34.602 22.078 L 34.672 19.969 C 34.691 19.289, 34.840 19.312, 35.051 19.945 L 35.672 22.004 C 35.906 21.961, 36.215 21.930, 36.438 21.961 L 36.738 19.805 C 36.832 19.137, 36.980 19.156, 37.121 19.785 L 37.582 21.895 C 37.805 21.926, 38.113 21.891, 38.336 21.922 L 38.848 19.875 C 39.020 19.219, 39.168 19.238, 39.223 19.926 Z M 35.703 50.332 C 42.762 51.324, 49.281 46.410, 50.273 39.355 C 51.266 32.301, 46.352 25.777, 39.297 24.785 C 32.238 23.793, 25.652 28.625, 24.660 35.680 C 23.672 42.734, 28.648 49.344, 35.703 50.332 Z M 35.703 50.332" fill="#09090b" transform="matrix(45 0 0 -45 8363.25 28185.75)" />
  <path d="M 39.469 21.930 L 40.211 22.035 L 41.023 20.027 C 41.266 19.383, 41.406 19.477, 41.395 20.082 L 41.324 22.191 C 41.551 22.223, 41.836 22.340, 42.059 22.371 L 43.082 20.469 C 43.391 19.906, 43.539 19.930, 43.445 20.598 L 43.078 22.664 C 43.289 22.770, 43.578 22.887, 43.801 22.918 L 45.027 21.199 C 45.406 20.645, 45.543 20.738, 45.375 21.398 L 44.785 23.438 C 45.000 23.543, 45.285 23.656, 45.488 23.836 L 46.852 22.211 C 47.297 21.742, 47.434 21.840, 47.203 22.410 L 46.391 24.418 C 46.594 24.598, 46.805 24.703, 47.008 24.883 L 48.574 23.438 C 49.094 22.980, 49.230 23.074, 48.914 23.711 L 47.898 25.539 C 48.102 25.719, 48.305 25.898, 48.430 26.070 L 50.188 24.875 C 50.695 24.492, 50.836 24.590, 50.453 25.141 L 49.133 27.000 C 49.336 27.180, 49.461 27.352, 49.652 27.605 L 51.527 26.656 C 52.102 26.355, 52.238 26.453, 51.785 26.996 L 50.355 28.535 C 50.484 28.703, 50.676 28.961, 50.793 29.203 L 52.797 28.426 C 53.430 28.211, 53.484 28.371, 52.977 28.754 L 51.348 30.113 L 51.699 30.844 L 53.742 30.301 C 54.367 30.160, 54.422 30.320, 53.926 30.629 L 52.168 31.820 C 52.285 32.062, 52.328 32.297, 52.445 32.539 L 54.531 32.227 C 55.148 32.164, 55.277 32.332, 54.629 32.621 L 52.754 33.566 C 52.797 33.801, 52.914 34.047, 52.945 34.352 L 54.992 34.336 C 55.672 34.355, 55.652 34.504, 55.090 34.730 L 53.172 35.445 C 53.215 35.680, 53.246 35.984, 53.289 36.219 L 55.379 36.438 C 56.047 36.531, 56.027 36.680, 55.402 36.820 L 53.367 37.289 C 53.410 37.523, 53.367 37.820, 53.336 38.043 L 55.312 38.547 C 55.969 38.715, 55.949 38.863, 55.258 38.918 L 53.180 39.156 L 53.066 39.973 L 55.020 40.629 C 55.668 40.871, 55.645 41.020, 54.965 41.000 L 52.918 41.016 C 52.879 41.312, 52.773 41.523, 52.730 41.820 L 54.566 42.762 C 55.129 43.066, 55.109 43.215, 54.441 43.121 L 52.438 42.840 C 52.332 43.051, 52.289 43.348, 52.184 43.562 L 53.914 44.715 C 54.465 45.094, 54.371 45.230, 53.789 45.074 L 51.812 44.570 C 51.707 44.781, 51.594 45.070, 51.488 45.281 L 53.039 46.637 C 53.508 47.078, 53.484 47.227, 52.836 46.984 L 50.969 46.270 C 50.789 46.469, 50.672 46.758, 50.492 46.957 L 51.875 48.441 C 52.344 48.887, 52.238 49.098, 51.602 48.781 L 49.730 47.535 L 49.191 48.141 L 50.402 49.750 C 50.789 50.258, 50.691 50.395, 50.141 50.016 L 48.484 48.871 C 48.301 49.074, 48.121 49.277, 47.879 49.395 L 48.922 51.133 C 49.223 51.703, 49.125 51.840, 48.582 51.387 L 47.031 50.031 C 46.777 50.223, 46.609 50.352, 46.363 50.469 L 47.164 52.324 C 47.453 52.969, 47.293 53.023, 46.836 52.504 L 45.453 51.023 L 44.723 51.375 L 45.277 53.344 C 45.492 53.980, 45.332 54.035, 44.949 53.527 L 43.824 51.852 C 43.578 51.969, 43.336 52.086, 43.016 52.195 L 43.340 54.207 C 43.480 54.836, 43.320 54.887, 42.949 54.305 L 41.988 52.504 C 41.754 52.547, 41.438 52.652, 41.203 52.695 L 41.305 54.680 C 41.359 55.371, 41.137 55.340, 40.914 54.777 L 40.164 53.082 C 39.934 53.125, 39.625 53.156, 39.391 53.199 L 39.258 55.227 C 39.238 55.906, 39.016 55.875, 38.875 55.246 L 38.320 53.277 C 38.086 53.320, 37.789 53.277, 37.484 53.309 L 37.051 55.293 C 36.957 55.965, 36.734 55.930, 36.672 55.316 L 36.508 53.250 C 36.211 53.207, 35.988 53.176, 35.680 53.207 L 35.027 55.160 C 34.785 55.809, 34.637 55.789, 34.656 55.109 L 34.641 53.062 C 34.344 53.020, 34.121 52.988, 33.832 52.871 L 32.969 54.719 C 32.734 55.293, 32.512 55.262, 32.605 54.594 L 32.812 52.578 C 32.527 52.461, 32.305 52.430, 32.094 52.324 L 30.941 54.059 C 30.633 54.621, 30.410 54.590, 30.578 53.930 L 31.008 51.945 C 30.797 51.840, 30.512 51.723, 30.297 51.617 L 29.008 53.254 C 28.629 53.809, 28.414 53.703, 28.656 53.055 L 29.312 51.102 C 29.098 50.996, 28.895 50.816, 28.609 50.699 L 27.117 52.156 C 26.672 52.625, 26.535 52.527, 26.766 51.957 L 27.707 50.117 C 27.504 49.938, 27.305 49.758, 27.090 49.652 L 25.473 50.941 C 24.961 51.324, 24.824 51.227, 25.203 50.676 L 26.355 48.945 C 26.156 48.766, 25.953 48.586, 25.836 48.340 L 24.121 49.234 C 23.539 49.609, 23.410 49.438, 23.855 48.973 L 25.145 47.336 C 24.941 47.156, 24.824 46.910, 24.699 46.742 L 22.832 47.617 C 22.262 47.914, 22.133 47.746, 22.578 47.277 L 24.070 45.820 C 23.953 45.578, 23.824 45.406, 23.707 45.164 L 21.727 45.793 C 21.090 46.008, 21.035 45.848, 21.543 45.465 L 23.238 44.188 C 23.121 43.945, 23.004 43.703, 22.961 43.469 L 20.938 43.867 C 20.312 44.004, 20.258 43.844, 20.840 43.473 L 22.652 42.441 C 22.535 42.195, 22.492 41.965, 22.449 41.730 L 20.230 41.871 C 19.543 41.926, 19.488 41.770, 20.137 41.480 L 22.062 40.691 C 22.020 40.457, 21.988 40.152, 21.945 39.918 L 19.836 39.848 C 19.156 39.828, 19.176 39.680, 19.812 39.465 L 21.793 38.836 C 21.750 38.602, 21.793 38.305, 21.750 38.070 L 19.680 37.707 C 19.012 37.613, 19.043 37.391, 19.660 37.324 L 21.758 36.938 C 21.789 36.715, 21.758 36.406, 21.789 36.184 L 19.750 35.594 C 19.094 35.426, 19.125 35.203, 19.805 35.223 L 21.934 35.145 L 22.039 34.402 L 20.105 33.602 C 19.535 33.367, 19.566 33.145, 20.234 33.238 L 22.332 33.383 C 22.363 33.160, 22.480 32.875, 22.586 32.660 L 20.762 31.648 C 20.195 31.340, 20.219 31.191, 20.887 31.285 L 22.957 31.652 C 23.062 31.441, 23.176 31.152, 23.281 30.941 L 21.562 29.715 C 21.008 29.336, 21.105 29.195, 21.762 29.363 L 23.789 30.027 C 23.895 29.816, 24.074 29.613, 24.180 29.402 L 22.641 27.973 C 22.172 27.527, 22.266 27.391, 22.840 27.621 L 24.762 28.500 C 24.941 28.297, 25.047 28.082, 25.227 27.883 L 23.867 26.250 C 23.410 25.734, 23.578 25.605, 24.129 25.984 L 25.945 27.074 C 26.125 26.871, 26.297 26.746, 26.477 26.543 L 25.293 24.711 C 24.922 24.129, 25.082 24.074, 25.559 24.445 L 27.270 25.746 C 27.449 25.543, 27.691 25.426, 27.875 25.223 L 26.957 23.125 C 26.656 22.555, 26.828 22.426, 27.297 22.871 L 28.824 24.375 C 28.996 24.246, 29.238 24.129, 29.484 24.012 L 28.777 22.020 C 28.566 21.383, 28.723 21.328, 29.105 21.840 L 30.457 23.543 C 30.699 23.426, 30.945 23.309, 31.113 23.180 L 30.652 21.070 C 30.516 20.445, 30.672 20.391, 31.055 20.898 L 32.164 22.723 C 32.406 22.605, 32.641 22.562, 32.875 22.520 L 32.645 20.367 C 32.590 19.676, 32.750 19.625, 33.039 20.270 L 33.902 22.207 L 34.602 22.078 L 34.672 19.969 C 34.691 19.289, 34.840 19.312, 35.051 19.945 L 35.672 22.004 C 35.906 21.961, 36.215 21.930, 36.438 21.961 L 36.738 19.805 C 36.832 19.137, 36.980 19.156, 37.121 19.785 L 37.582 21.895 C 37.805 21.926, 38.113 21.891, 38.336 21.922 L 38.848 19.875 C 39.020 19.219, 39.168 19.238, 39.223 19.926 Z M 35.703 50.332 C 42.762 51.324, 49.281 46.410, 50.273 39.355 C 51.266 32.301, 46.352 25.777, 39.297 24.785 C 32.238 23.793, 25.652 28.625, 24.660 35.680 C 23.672 42.734, 28.648 49.344, 35.703 50.332 Z M 35.703 50.332" fill="#a1a1aa" transform="matrix(45 0 0 -45 8363.25 28185.75)" />
  <path d="M 39.469 21.930 L 40.211 22.035 L 41.023 20.027 C 41.266 19.383, 41.406 19.477, 41.395 20.082 L 41.324 22.191 C 41.551 22.223, 41.836 22.340, 42.059 22.371 L 43.082 20.469 C 43.391 19.906, 43.539 19.930, 43.445 20.598 L 43.078 22.664 C 43.289 22.770, 43.578 22.887, 43.801 22.918 L 45.027 21.199 C 45.406 20.645, 45.543 20.738, 45.375 21.398 L 44.785 23.438 C 45.000 23.543, 45.285 23.656, 45.488 23.836 L 46.852 22.211 C 47.297 21.742, 47.434 21.840, 47.203 22.410 L 46.391 24.418 C 46.594 24.598, 46.805 24.703, 47.008 24.883 L 48.574 23.438 C 49.094 22.980, 49.230 23.074, 48.914 23.711 L 47.898 25.539 C 48.102 25.719, 48.305 25.898, 48.430 26.070 L 50.188 24.875 C 50.695 24.492, 50.836 24.590, 50.453 25.141 L 49.133 27.000 C 49.336 27.180, 49.461 27.352, 49.652 27.605 L 51.527 26.656 C 52.102 26.355, 52.238 26.453, 51.785 26.996 L 50.355 28.535 C 50.484 28.703, 50.676 28.961, 50.793 29.203 L 52.797 28.426 C 53.430 28.211, 53.484 28.371, 52.977 28.754 L 51.348 30.113 L 51.699 30.844 L 53.742 30.301 C 54.367 30.160, 54.422 30.320, 53.926 30.629 L 52.168 31.820 C 52.285 32.062, 52.328 32.297, 52.445 32.539 L 54.531 32.227 C 55.148 32.164, 55.277 32.332, 54.629 32.621 L 52.754 33.566 C 52.797 33.801, 52.914 34.047, 52.945 34.352 L 54.992 34.336 C 55.672 34.355, 55.652 34.504, 55.090 34.730 L 53.172 35.445 C 53.215 35.680, 53.246 35.984, 53.289 36.219 L 55.379 36.438 C 56.047 36.531, 56.027 36.680, 55.402 36.820 L 53.367 37.289 C 53.410 37.523, 53.367 37.820, 53.336 38.043 L 55.312 38.547 C 55.969 38.715, 55.949 38.863, 55.258 38.918 L 53.180 39.156 L 53.066 39.973 L 55.020 40.629 C 55.668 40.871, 55.645 41.020, 54.965 41.000 L 52.918 41.016 C 52.879 41.312, 52.773 41.523, 52.730 41.820 L 54.566 42.762 C 55.129 43.066, 55.109 43.215, 54.441 43.121 L 52.438 42.840 C 52.332 43.051, 52.289 43.348, 52.184 43.562 L 53.914 44.715 C 54.465 45.094, 54.371 45.230, 53.789 45.074 L 51.812 44.570 C 51.707 44.781, 51.594 45.070, 51.488 45.281 L 53.039 46.637 C 53.508 47.078, 53.484 47.227, 52.836 46.984 L 50.969 46.270 C 50.789 46.469, 50.672 46.758, 50.492 46.957 L 51.875 48.441 C 52.344 48.887, 52.238 49.098, 51.602 48.781 L 49.730 47.535 L 49.191 48.141 L 50.402 49.750 C 50.789 50.258, 50.691 50.395, 50.141 50.016 L 48.484 48.871 C 48.301 49.074, 48.121 49.277, 47.879 49.395 L 48.922 51.133 C 49.223 51.703, 49.125 51.840, 48.582 51.387 L 47.031 50.031 C 46.777 50.223, 46.609 50.352, 46.363 50.469 L 47.164 52.324 C 47.453 52.969, 47.293 53.023, 46.836 52.504 L 45.453 51.023 L 44.723 51.375 L 45.277 53.344 C 45.492 53.980, 45.332 54.035, 44.949 53.527 L 43.824 51.852 C 43.578 51.969, 43.336 52.086, 43.016 52.195 L 43.340 54.207 C 43.480 54.836, 43.320 54.887, 42.949 54.305 L 41.988 52.504 C 41.754 52.547, 41.438 52.652, 41.203 52.695 L 41.305 54.680 C 41.359 55.371, 41.137 55.340, 40.914 54.777 L 40.164 53.082 C 39.934 53.125, 39.625 53.156, 39.391 53.199 L 39.258 55.227 C 39.238 55.906, 39.016 55.875, 38.875 55.246 L 38.320 53.277 C 38.086 53.320, 37.789 53.277, 37.484 53.309 L 37.051 55.293 C 36.957 55.965, 36.734 55.930, 36.672 55.316 L 36.508 53.250 C 36.211 53.207, 35.680 53.207, 35.027 55.160 C 34.785 55.809, 34.637 55.789, 34.656 55.109 L 34.641 53.062 C 34.344 53.020, 34.121 52.988, 33.832 52.871 L 32.969 54.719 C 32.734 55.293, 32.512 55.262, 32.605 54.594 L 32.812 52.578 C 32.527 52.461, 32.305 52.430, 32.094 52.324 L 30.941 54.059 C 30.633 54.621, 30.410 54.590, 30.578 53.930 L 31.008 51.945 C 30.797 51.840, 30.512 51.723, 30.297 51.617 L 29.008 53.254 C 28.629 53.809, 28.414 53.703, 28.656 53.055 L 29.312 51.102 C 29.098 50.996, 28.895 50.816, 28.609 50.699 L 27.117 52.156 C 26.672 52.625, 26.535 52.527, 26.766 51.957 L 27.707 50.117 C 27.504 49.938, 27.305 49.758, 27.090 49.652 L 25.473 50.941 C 24.961 51.324, 24.824 51.227, 25.203 50.676 L 26.355 48.945 C 26.156 48.766, 25.953 48.586, 25.836 48.340 L 24.121 49.234 C 23.539 49.609, 23.410 49.438, 23.855 48.973 L 25.145 47.336 C 24.941 47.156, 24.824 46.910, 24.699 46.742 L 22.832 47.617 C 22.262 47.914, 22.133 47.746, 22.578 47.277 L 24.070 45.820 C 23.953 45.578, 23.824 45.406, 23.707 45.164 L 21.727 45.793 C 21.090 46.008, 21.035 45.848, 21.543 45.465 L 23.238 44.188 C 23.121 43.945, 23.004 43.703, 22.961 43.469 L 20.938 43.867 C 20.312 44.004, 20.258 43.844, 20.840 43.473 L 22.652 42.441 C 22.535 42.195, 22.492 41.965, 22.449 41.730 L 20.230 41.871 C 19.543 41.926, 19.488 41.770, 20.137 41.480 L 22.062 40.691 C 22.020 40.457, 21.988 40.152, 21.945 39.918 L 19.836 39.848 C 19.156 39.828, 19.176 39.680, 19.812 39.465 L 21.793 38.836 C 21.750 38.602, 21.793 38.305, 21.750 38.070 L 19.680 37.707 C 19.012 37.613, 19.043 37.391, 19.660 37.324 L 21.758 36.938 C 21.789 36.715, 21.758 36.406, 21.789 36.184 L 19.750 35.594 C 19.094 35.426, 19.125 35.203, 19.805 35.223 L 21.934 35.145 L 22.039 34.402 L 20.105 33.602 C 19.535 33.367, 19.566 33.145, 20.234 33.238 L 22.332 33.383 C 22.363 33.160, 22.480 32.875, 22.586 32.660 L 20.762 31.648 C 20.195 31.340, 20.219 31.191, 20.887 31.285 L 22.957 31.652 C 23.062 31.441, 23.176 31.152, 23.281 30.941 L 21.562 29.715 C 21.008 29.336, 21.105 29.195, 21.762 29.363 L 23.789 30.027 C 23.895 29.816, 24.074 29.613, 24.180 29.402 L 22.641 27.973 C 22.172 27.527, 22.266 27.391, 22.840 27.621 L 24.762 28.500 C 24.941 28.297, 25.047 28.082, 25.227 27.883 L 23.867 26.250 C 23.410 25.734, 23.578 25.605, 24.129 25.984 L 25.945 27.074 C 26.125 26.871, 26.297 26.746, 26.477 26.543 L 25.293 24.711 C 24.922 24.129, 25.082 24.074, 25.559 24.445 L 27.270 25.746 C 27.449 25.543, 27.691 25.426, 27.875 25.223 L 26.957 23.125 C 26.656 22.555, 26.828 22.426, 27.297 22.871 L 28.824 24.375 C 28.996 24.246, 29.238 24.129, 29.484 24.012 L 28.777 22.020 C 28.566 21.383, 28.723 21.328, 29.105 21.840 L 30.457 23.543 C 30.699 23.426, 30.945 23.309, 31.113 23.180 L 30.652 21.070 C 30.516 20.445, 30.672 20.391, 31.055 20.898 L 32.164 22.723 C 32.406 22.605, 32.641 22.562, 32.875 22.520 L 32.645 20.367 C 32.590 19.676, 32.750 19.625, 33.039 20.270 L 33.902 22.207 L 34.602 22.078 L 34.672 19.969 C 34.691 19.289, 34.840 19.312, 35.051 19.945 L 35.672 22.004 C 35.906 21.961, 36.215 21.930, 36.438 21.961 L 36.738 19.805 C 36.832 19.137, 36.980 19.156, 37.121 19.785 L 37.582 21.895 C 37.805 21.926, 38.113 21.891, 38.336 21.922 L 38.848 19.875 C 39.020 19.219, 39.168 19.238, 39.223 19.926 Z M 35.703 50.332 C 42.762 51.324, 49.281 46.410, 50.273 39.355 C 51.266 32.301, 46.352 25.777, 39.297 24.785 C 32.238 23.793, 25.652 28.625, 24.660 35.680 C 23.672 42.734, 28.648 49.344, 35.703 50.332 Z M 35.703 50.332" fill="#cbd5e1" transform="matrix(45 0 0 -45 8363.25 28185.75)" />
  <path d="M 27.676 52.051 C 26.926 53.398, 24.977 53.551, 23.773 52.875 C 22.949 52.426, 21 50.551, 19.199 47.625 C 17.551 44.625, 16.648 41.250, 16.648 37.574 C 16.648 31.426, 19.273 25.949, 23.551 22.125 C 24.898 21.375, 26.773 21.523, 27.523 22.801 L 34.949 35.551 C 35.551 36.602, 35.551 38.625, 34.875 39.676 Z M 53.551 50.699 C 51.148 53.551, 48.074 55.801, 44.477 57.074 C 39.824 58.426, 33.750 58.500, 31.426 57.227 C 29.852 56.477, 29.250 54.824, 30.000 53.477 L 37.352 40.727 C 37.949 39.676, 39.523 38.773, 40.727 38.773 L 55.051 38.773 C 56.625 38.773, 57.676 40.125, 57.676 41.477 C 57.676 42.676, 56.699 46.801, 53.551 50.699 Z M 36.375 37.500 C 36.375 36.898, 36.898 36.375, 37.500 36.375 C 38.102 36.375, 38.625 36.898, 38.625 37.500 C 38.625 38.102, 38.102 38.625, 37.500 38.625 C 36.898 38.625, 36.375 38.102, 36.375 37.500 Z M 55.352 36.148 L 40.352 36.148 C 39.074 36.074, 37.574 35.023, 36.977 33.898 L 29.852 21.523 C 29.102 20.176, 29.926 18.676, 31.125 18.000 C 31.949 17.551, 34.574 16.727, 38.023 16.727 C 47.852 16.949, 55.949 24.074, 57.824 33.375 C 58.051 34.949, 56.699 36.148, 55.352 36.148 Z M 55.352 36.148" fill="#f4f4f5" />
  <rect x="-1000" y="-1000" width="2000" height="2000" fill="url(#sh7)" transform="matrix(36.121725 0 0 -36.115726 6689.69458 22673.077148)" clip-path="url(#clip2)" />
  </g>
</svg>
